<svg width="60px" height="29px" viewBox="0 0 60 29" version="1.1" xmlns="http://www.w3.org/2000/svg" xmlns:xlink="http://www.w3.org/1999/xlink">
    <!-- Generator: Sketch 50 (54983) - http://www.bohemiancoding.com/sketch -->
    <title>Group</title>
    <desc>Created with Sketch.</desc>
    <defs>
        <linearGradient x1="133.66887%" y1="-48.1971154%" x2="2.89442843%" y2="109.727318%" id="linearGradient-1">
            <stop stop-color="#4973FF" offset="0%"/>
            <stop stop-color="#AB4E8E" offset="54.0116393%"/>
            <stop stop-color="#AB4E8E" offset="54.0116393%"/>
            <stop stop-color="#FF2E2E" offset="100%"/>
        </linearGradient>
        <polygon id="path-2" points="0.12188068 0.11727193 18.9388052 0.11727193 18.9388052 28.2368421 0.12188068 28.2368421"/>
        <polygon id="path-4" points="2.52252252e-05 0.117322807 27.8820973 0.117322807 27.8820973 28.2368421 2.52252252e-05 28.2368421"/>
    </defs>
    <g id="Home" stroke="none" stroke-width="1" fill="none" fill-rule="evenodd">
        <g id="Group">
            <path d="M35.0375361,18 C34.7912737,18 34.5448829,17.9075491 34.3568816,17.7226474 L33.0135387,16.4004231 C32.3599615,15.757056 32,14.9018854 32,13.9921537 C32,13.0822956 32.3599615,12.2271251 33.0135387,11.5837579 L34.3408406,10.2774473 C34.7168431,9.90751755 35.3261469,9.90751755 35.7021495,10.2774473 C36.0778954,10.6473771 36.0778954,11.2470448 35.7021495,11.6171009 L34.3747193,12.9235378 C34.0845685,13.2088472 33.9249278,13.5883758 33.9249278,13.9921537 C33.9249278,14.3958053 34.0845685,14.7753338 34.3747193,15.0607696 L35.7181906,16.3828675 C36.0939365,16.7529236 36.0939365,17.3525913 35.7181906,17.7226474 C35.5301893,17.9075491 35.2837985,18 35.0375361,18" id="Fill-1" fill="url(#linearGradient-1)"/>
            <path d="M24.9624639,18 C24.7162015,18 24.4698107,17.9075491 24.2818094,17.7226474 C23.9060635,17.3525913 23.9060635,16.7529236 24.2818094,16.3828675 L25.6252807,15.0607696 C25.9154315,14.7753338 26.0750722,14.3958053 26.0750722,13.9921537 C26.0750722,13.5883758 25.9154315,13.2088472 25.6252807,12.9235378 L24.2978505,11.6171009 C23.9221046,11.2470448 23.9221046,10.6473771 24.2978505,10.2774473 C24.6738531,9.90751755 25.2831569,9.90751755 25.6591594,10.2774473 L26.9864613,11.5837579 C27.6400385,12.2271251 28,13.0822956 28,13.9921537 C28,14.9018854 27.6400385,15.757056 26.9864613,16.4004231 L25.6431184,17.7226474 C25.4551171,17.9075491 25.2087263,18 24.9624639,18" id="Fill-3" fill="url(#linearGradient-1)"/>
            <path d="M13.7708785,28 C12.9106074,28 12.0502117,27.6671582 11.3952595,27.0013479 L0.982428359,16.4158894 C-0.32747612,15.0841422 -0.32747612,12.9175042 0.982428359,11.5857571 L11.3952595,1.00042519 C12.0297795,0.355385882 12.8734806,0 13.7708785,0 C14.6682765,0 15.5119775,0.355385882 16.1464976,1.00042519 L18.6032225,3.49787858 C18.968137,3.86884267 18.968137,4.47031364 18.6032225,4.84115109 C18.2380589,5.21224183 17.6465213,5.21211518 17.2817315,4.84115109 L14.8250065,2.3436977 C14.5434406,2.05746388 14.1690576,1.89978198 13.7708785,1.89978198 C13.3726994,1.89978198 12.9983164,2.05746388 12.7167505,2.3436977 L2.3039194,12.9292829 C1.72259789,13.5201151 1.72259789,14.4816581 2.3039194,15.0724903 L12.7167505,25.6579488 C13.2978228,26.2489076 14.2439342,26.2489076 14.8250065,25.6579488 L17.4048231,23.0353631 C17.7698622,22.6645256 18.3613998,22.6645256 18.7263142,23.0353631 C19.0912286,23.4063272 19.0912286,24.0077982 18.7263142,24.3787622 L16.1464976,27.0013479 C15.4915453,27.6671582 14.6311496,28 13.7708785,28" id="Fill-5" fill="url(#linearGradient-1)"/>
            <g id="Group-9" transform="translate(41.000000, 0.000000)">
                <mask id="mask-3" fill="white">
                    <use xlink:href="#path-2"/>
                </mask>
                <g id="Clip-8"/>
                <path d="M5.30007468,28.2368421 C4.44815909,28.2368421 3.59612013,27.9025789 2.9476526,27.2339254 L0.392892857,24.6000132 C0.0315227273,24.2275921 0.0315227273,23.6234254 0.393016234,23.2510044 C0.754262987,22.8784561 1.34017857,22.8785833 1.7015487,23.2511316 L4.25618506,25.8849167 C4.83161364,26.4781447 5.76853571,26.4782719 6.34396429,25.8847895 L16.6556591,15.2541272 C16.9346136,14.9666711 17.0882175,14.5844561 17.0882175,14.1779474 C17.0882175,13.7713114 16.9346136,13.3892237 16.6557825,13.1017675 L6.34396429,2.47097807 C6.06513312,2.18352193 5.69438636,2.02516667 5.30007468,2.02516667 C4.90576299,2.02516667 4.53501623,2.18352193 4.25606169,2.47110526 L1.82332143,4.97909649 C1.4619513,5.35164474 0.876159091,5.35177193 0.514665584,4.97909649 C0.153295455,4.60667544 0.153295455,4.00263596 0.514665584,3.63008772 L2.94752922,1.1219693 C3.57588636,0.474175439 4.41151623,0.11727193 5.30007468,0.11727193 C6.18875649,0.11727193 7.02426299,0.474175439 7.65262013,1.1219693 L17.9643149,11.7525044 C18.5926721,12.4002982 18.9388669,13.2617763 18.9388669,14.1779474 C18.9388669,15.0941184 18.5926721,15.9554693 17.9641916,16.6032632 L7.65262013,27.2339254 C7.0041526,27.9024518 6.15199026,28.2368421 5.30007468,28.2368421" id="Fill-7" fill="url(#linearGradient-1)" mask="url(#mask-3)"/>
            </g>
            <g id="Group-12" transform="translate(16.000000, 0.000000)">
                <mask id="mask-5" fill="white">
                    <use xlink:href="#path-4"/>
                </mask>
                <g id="Clip-11"/>
                <path d="M13.9410613,2.02521754 C13.5379622,2.02521754 13.1589532,2.18357281 12.8739081,2.47102895 L2.33241261,13.1016912 C1.74390811,13.6951737 1.74390811,14.6606956 2.33241261,15.2540509 L12.8739081,25.8847132 C13.4621604,26.4781956 14.4199622,26.4781956 15.0082144,25.8847132 L25.5497099,15.2540509 C26.1382144,14.6606956 26.1382144,13.6951737 25.5497099,13.1016912 L15.0082144,2.47102895 C14.7231694,2.18357281 14.3441604,2.02521754 13.9410613,2.02521754 M13.9410613,28.236893 C13.0701604,28.236893 12.1991333,27.9026298 11.5360883,27.2339763 L0.994592793,16.603314 C-0.331497297,15.2658798 -0.331497297,13.0899895 0.994592793,11.7525553 L11.5360883,1.12189298 C12.1784486,0.474099123 13.0325748,0.117322807 13.9410613,0.117322807 C14.8495477,0.117322807 15.7036739,0.474099123 16.3460342,1.12189298 L26.8875297,11.7525553 C28.2136198,13.0899895 28.2136198,15.2658798 26.8875297,16.603314 L16.3460342,27.2339763 C15.6829892,27.9026298 14.8119622,28.236893 13.9410613,28.236893" id="Fill-10" fill="url(#linearGradient-1)" mask="url(#mask-5)"/>
            </g>
        </g>
    </g>
</svg>